<svg width="11" height="8" viewBox="0 0 11 8" fill="none" xmlns="http://www.w3.org/2000/svg">
<path d="M5.48815 7.22248C5.24181 7.22051 5.00591 7.12275 4.8304 6.9499L0.279459 2.39897C0.101082 2.22138 0.000560585 1.98021 2.29637e-06 1.72851C-0.000555993 1.4768 0.0988973 1.23518 0.276485 1.05681C0.454072 0.87843 0.695252 0.777904 0.946957 0.777346C1.19866 0.776788 1.44028 0.876242 1.61866 1.05383L5.5 4.93516L9.38134 1.05383C9.55972 0.876242 9.80134 0.776788 10.053 0.777347C10.3047 0.777905 10.5459 0.87843 10.7235 1.05681C10.9011 1.23518 11.0006 1.4768 11 1.72851C10.9994 1.98021 10.8989 2.22139 10.7205 2.39897L6.16959 6.9499C6.07982 7.03834 5.97332 7.108 5.85632 7.1548C5.73931 7.2016 5.61415 7.22461 5.48815 7.22248Z" fill="#83868C"/>
</svg>
