<svg width="375" height="892" viewBox="0 0 375 892" fill="none" xmlns="http://www.w3.org/2000/svg">
<path opacity="0.5" d="M272.345 503.639C141.488 586.391 0.816792 626.158 -120.82 623.577C-242.462 620.996 -345.004 576.072 -399.739 489.519C-454.475 402.965 -451.106 291.065 -401.296 180.059C-351.488 69.058 -255.26 -40.9881 -124.403 -123.741C6.45339 -206.493 147.125 -246.26 268.762 -243.679C390.403 -241.097 492.945 -196.174 547.681 -109.62C602.416 -23.0672 599.048 88.8332 549.238 199.839C499.429 310.84 403.202 420.886 272.345 503.639Z" stroke="#83868C"/>
<path opacity="0.5" d="M486.5 274.652C356.926 304.514 212.934 294.463 75.8082 237.013C16.8408 212.309 -36.7694 180.551 -84.2598 143.366" stroke="url(#paint0_linear)"/>
<path opacity="0.5" d="M223.773 566.119C97.6354 655.901 -40.6521 703.297 -162.248 707.369C-283.849 711.441 -388.693 672.19 -448.078 588.758C-507.463 505.326 -510.217 393.409 -466.549 279.847C-422.882 166.288 -332.814 51.1468 -206.677 -38.635C-80.5388 -128.417 57.7487 -175.813 179.345 -179.885C300.946 -183.957 405.79 -144.706 465.175 -61.2738C524.56 22.158 527.313 134.075 483.645 247.638C439.979 361.196 349.911 476.337 223.773 566.119Z" stroke="#83868C"/>
<defs>
<linearGradient id="paint0_linear" x1="462.546" y1="331.827" x2="-69.7811" y2="108.807" gradientUnits="userSpaceOnUse">
<stop stop-color="#83868C" stop-opacity="0"/>
<stop offset="0.46875" stop-color="#83868C"/>
<stop offset="1" stop-color="#83868C" stop-opacity="0"/>
</linearGradient>
</defs>
</svg>
