<svg width="1152" height="1124" viewBox="0 0 1152 1124" fill="none" xmlns="http://www.w3.org/2000/svg">
<circle cx="378" cy="744" r="85" fill="url(#paint0_linear)"/>
<circle cx="507.5" cy="8.5" r="129.5" fill="url(#paint1_linear)"/>
<ellipse cx="201.5" cy="273" rx="39.5" ry="40" fill="url(#paint2_linear)"/>
<circle cx="738.5" cy="313.5" r="12.5" fill="url(#paint3_linear)"/>
<circle cx="966" cy="188" r="28" fill="url(#paint4_linear)"/>
<circle cx="899" cy="503" r="26" fill="url(#paint5_linear)"/>
<path d="M745.122 301.81C750.174 298.773 754.21 297.615 755.596 299.159C757.867 301.688 752.162 310.513 742.854 318.869C733.546 327.226 724.159 331.95 721.888 329.42C720.396 327.757 722.349 323.374 726.508 318.192" stroke="#83868C"/>
<path opacity="0.5" d="M759.549 606.457C585.049 716.809 397.456 769.842 235.236 766.4C73.0117 762.958 -63.7736 703.045 -136.793 587.578C-209.813 472.112 -205.309 322.849 -138.881 174.809C-72.454 26.773 55.8731 -119.979 230.373 -230.331C404.872 -340.682 592.466 -393.716 754.686 -390.274C916.91 -386.832 1053.7 -326.918 1126.72 -211.452C1199.73 -95.9856 1195.23 53.2777 1128.8 201.318C1062.38 349.353 934.048 496.105 759.549 606.457Z" stroke="#83868C"/>
<path opacity="0.5" d="M1045 301C872.235 340.816 680.245 327.414 497.411 250.815C418.788 217.876 347.307 175.533 283.987 125.952" stroke="url(#paint6_linear)"/>
<path opacity="0.5" d="M694.794 689.759C526.588 809.484 342.173 872.693 180.008 878.123C17.8384 883.554 -122.017 831.207 -201.24 719.905C-280.462 608.602 -284.124 459.316 -225.887 307.866C-167.652 156.421 -47.5382 2.87382 120.668 -116.852C288.875 -236.577 473.289 -299.785 635.454 -305.216C797.624 -310.646 937.48 -258.3 1016.7 -146.998C1095.92 -35.6952 1099.59 113.591 1041.35 265.041C983.114 416.486 863.001 570.033 694.794 689.759Z" stroke="#83868C"/>
<defs>
<linearGradient id="paint0_linear" x1="293" y1="776.5" x2="463" y2="776.5" gradientUnits="userSpaceOnUse">
<stop stop-color="#9069D3"/>
<stop offset="0.490502" stop-color="#772CE2"/>
<stop offset="1" stop-color="#5D00D2"/>
</linearGradient>
<linearGradient id="paint1_linear" x1="378" y1="58.0147" x2="637" y2="58.0147" gradientUnits="userSpaceOnUse">
<stop stop-color="#F35B35"/>
<stop offset="0.490502" stop-color="#FF003A"/>
<stop offset="1" stop-color="#F7005B"/>
</linearGradient>
<linearGradient id="paint2_linear" x1="162" y1="288.294" x2="241" y2="288.294" gradientUnits="userSpaceOnUse">
<stop stop-color="#27303C"/>
<stop offset="0.490502" stop-color="#273745"/>
<stop offset="1" stop-color="#333E48"/>
</linearGradient>
<linearGradient id="paint3_linear" x1="726" y1="318.279" x2="751" y2="318.279" gradientUnits="userSpaceOnUse">
<stop stop-color="#9069D3"/>
<stop offset="0.490502" stop-color="#772CE2"/>
<stop offset="1" stop-color="#5D00D2"/>
</linearGradient>
<linearGradient id="paint4_linear" x1="938" y1="198.706" x2="994" y2="198.706" gradientUnits="userSpaceOnUse">
<stop stop-color="#F1C52C"/>
<stop offset="0.490502" stop-color="#FFA700"/>
<stop offset="1" stop-color="#FA9200"/>
</linearGradient>
<linearGradient id="paint5_linear" x1="873" y1="512.941" x2="925" y2="512.941" gradientUnits="userSpaceOnUse">
<stop stop-color="#08C1B4"/>
<stop offset="0.490502" stop-color="#00C594"/>
<stop offset="1" stop-color="#00B171"/>
</linearGradient>
<linearGradient id="paint6_linear" x1="1013.06" y1="377.234" x2="303.292" y2="79.8734" gradientUnits="userSpaceOnUse">
<stop stop-color="#83868C" stop-opacity="0"/>
<stop offset="0.46875" stop-color="#83868C"/>
<stop offset="1" stop-color="#83868C" stop-opacity="0"/>
</linearGradient>
</defs>
</svg>
