<svg width="97" height="20" viewBox="0 0 97 20" fill="none" xmlns="http://www.w3.org/2000/svg">
<path d="M19.4283 6.66591H13.2671C13.5346 8.80208 13.5363 11.1558 13.2722 13.2947H19.4416C19.8015 12.2626 19.9997 11.1547 19.9997 10C19.9999 8.8305 19.7971 7.70881 19.4283 6.66591Z" fill="#EFECEC"/>
<path d="M13.2672 6.66591H19.4284C19.4273 6.66275 19.4264 6.66009 19.4253 6.65722C18.1454 3.04858 14.8534 0.393578 10.8979 0.0411458C12.4286 0.880193 12.8756 3.53853 13.2672 6.66591Z" fill="#E63026"/>
<path d="M10.8979 19.9586C14.8605 19.6055 18.1572 16.9414 19.432 13.3231C19.4353 13.3134 19.4381 13.304 19.4416 13.2947H13.272C12.8838 16.439 12.4349 19.116 10.8979 19.9586Z" fill="#2B479D"/>
<path d="M0 10C0 11.1547 0.198151 12.2626 0.558141 13.2947H13.787C14.0512 11.1557 14.0494 8.80208 13.782 6.66591H0.571398C0.202542 7.70881 0 8.8305 0 10Z" fill="#EFEFEF"/>
<path d="M0.574212 6.65726C0.573114 6.66008 0.572143 6.66279 0.571045 6.66595H13.7818C13.3902 3.53853 12.4283 0.880234 10.8978 0.0411866C10.6018 0.0149242 10.3024 -6.48499e-05 9.9996 -6.48499e-05C5.64949 -6.48499e-05 1.94987 2.77839 0.574212 6.65726Z" fill="#E73B36"/>
<path d="M13.787 13.2947H0.558105C0.561441 13.304 0.564439 13.3134 0.567732 13.3231C1.93794 17.2119 5.64242 19.9999 9.99971 19.9999C10.3026 19.9999 10.6019 19.9851 10.898 19.9586C12.4349 19.116 13.3987 16.439 13.787 13.2947Z" fill="#3757A6"/>
<path d="M33.2676 14.9999H31.5508L27.3379 8.17376H27.291L27.3203 8.55462C27.375 9.28119 27.4023 9.94525 27.4023 10.5468V14.9999H26.1309V6.43353H27.8301L32.0312 13.2245H32.0664C32.0586 13.1347 32.043 12.8085 32.0195 12.246C31.9961 11.6796 31.9844 11.2382 31.9844 10.9218V6.43353H33.2676V14.9999ZM38.2129 15.1171C37.2051 15.1171 36.416 14.8242 35.8457 14.2382C35.2793 13.6484 34.9961 12.8378 34.9961 11.8066C34.9961 10.748 35.2598 9.91595 35.7871 9.31048C36.3145 8.70501 37.0391 8.40228 37.9609 8.40228C38.8164 8.40228 39.4922 8.66204 39.9883 9.18158C40.4844 9.70111 40.7324 10.416 40.7324 11.3261V12.0702H36.4141C36.4336 12.6992 36.6035 13.1835 36.9238 13.5234C37.2441 13.8593 37.6953 14.0273 38.2773 14.0273C38.6602 14.0273 39.0156 13.9921 39.3438 13.9218C39.6758 13.8476 40.0312 13.7265 40.4102 13.5585V14.6777C40.0742 14.8378 39.7344 14.9511 39.3906 15.0175C39.0469 15.0839 38.6543 15.1171 38.2129 15.1171ZM37.9609 9.44525C37.5234 9.44525 37.1719 9.58392 36.9062 9.86126C36.6445 10.1386 36.4883 10.5429 36.4375 11.0742H39.3789C39.3711 10.539 39.2422 10.1347 38.9922 9.86126C38.7422 9.58392 38.3984 9.44525 37.9609 9.44525ZM44.7109 14.0038C45.0469 14.0038 45.3828 13.9511 45.7188 13.8456V14.8827C45.5664 14.9492 45.3691 15.0038 45.127 15.0468C44.8887 15.0937 44.6406 15.1171 44.3828 15.1171C43.0781 15.1171 42.4258 14.4296 42.4258 13.0546V9.56244H41.541V8.95306L42.4902 8.44915L42.959 7.07806H43.8086V8.51947H45.6543V9.56244H43.8086V13.0312C43.8086 13.3632 43.8906 13.6093 44.0547 13.7695C44.2227 13.9257 44.4414 14.0038 44.7109 14.0038ZM52.7207 14.9999H51.3379V11.0156C51.3379 10.5156 51.2363 10.1425 51.0332 9.89642C50.834 9.65033 50.5156 9.52728 50.0781 9.52728C49.5 9.52728 49.0742 9.70111 48.8008 10.0488C48.5312 10.3925 48.3965 10.9706 48.3965 11.7831V14.9999H47.0195V5.88275H48.3965V8.1972C48.3965 8.56829 48.373 8.96478 48.3262 9.38665H48.4141C48.6016 9.07415 48.8613 8.83197 49.1934 8.66009C49.5293 8.48822 49.9199 8.40228 50.3652 8.40228C51.9355 8.40228 52.7207 9.19329 52.7207 10.7753V14.9999ZM57.4668 15.1171C56.459 15.1171 55.6699 14.8242 55.0996 14.2382C54.5332 13.6484 54.25 12.8378 54.25 11.8066C54.25 10.748 54.5137 9.91595 55.041 9.31048C55.5684 8.70501 56.293 8.40228 57.2148 8.40228C58.0703 8.40228 58.7461 8.66204 59.2422 9.18158C59.7383 9.70111 59.9863 10.416 59.9863 11.3261V12.0702H55.668C55.6875 12.6992 55.8574 13.1835 56.1777 13.5234C56.498 13.8593 56.9492 14.0273 57.5312 14.0273C57.9141 14.0273 58.2695 13.9921 58.5977 13.9218C58.9297 13.8476 59.2852 13.7265 59.6641 13.5585V14.6777C59.3281 14.8378 58.9883 14.9511 58.6445 15.0175C58.3008 15.0839 57.9082 15.1171 57.4668 15.1171ZM57.2148 9.44525C56.7773 9.44525 56.4258 9.58392 56.1602 9.86126C55.8984 10.1386 55.7422 10.5429 55.6914 11.0742H58.6328C58.625 10.539 58.4961 10.1347 58.2461 9.86126C57.9961 9.58392 57.6523 9.44525 57.2148 9.44525ZM64.8379 8.40228C65.1152 8.40228 65.3438 8.42181 65.5234 8.46087L65.3887 9.74408C65.1934 9.6972 64.9902 9.67376 64.7793 9.67376C64.2285 9.67376 63.7812 9.85345 63.4375 10.2128C63.0977 10.5722 62.9277 11.039 62.9277 11.6132V14.9999H61.5508V8.51947H62.6289L62.8105 9.66204H62.8809C63.0957 9.27533 63.375 8.96869 63.7188 8.74212C64.0664 8.51556 64.4395 8.40228 64.8379 8.40228ZM68.1074 14.9999H66.7305V5.88275H68.1074V14.9999ZM74.1367 14.9999L73.8613 14.0976H73.8145C73.502 14.4921 73.1875 14.7617 72.8711 14.9062C72.5547 15.0468 72.1484 15.1171 71.6523 15.1171C71.0156 15.1171 70.5176 14.9452 70.1582 14.6015C69.8027 14.2577 69.625 13.7714 69.625 13.1425C69.625 12.4745 69.873 11.9706 70.3691 11.6308C70.8652 11.291 71.6211 11.1054 72.6367 11.0742L73.7559 11.039V10.6933C73.7559 10.2792 73.6582 9.97064 73.4629 9.76751C73.2715 9.56048 72.9727 9.45697 72.5664 9.45697C72.2344 9.45697 71.916 9.50579 71.6113 9.60345C71.3066 9.70111 71.0137 9.81634 70.7324 9.94915L70.2871 8.96478C70.6387 8.78119 71.0234 8.64251 71.4414 8.54876C71.8594 8.45111 72.2539 8.40228 72.625 8.40228C73.4492 8.40228 74.0703 8.58197 74.4883 8.94134C74.9102 9.30072 75.1211 9.86517 75.1211 10.6347V14.9999H74.1367ZM72.0859 14.0624C72.5859 14.0624 72.9863 13.9238 73.2871 13.6464C73.5918 13.3652 73.7441 12.9726 73.7441 12.4687V11.9062L72.9121 11.9413C72.2637 11.9648 71.791 12.0742 71.4941 12.2695C71.2012 12.4609 71.0547 12.7558 71.0547 13.1542C71.0547 13.4433 71.1406 13.6679 71.3125 13.8281C71.4844 13.9843 71.7422 14.0624 72.0859 14.0624ZM82.7441 14.9999H81.3613V11.0156C81.3613 10.5156 81.2598 10.1425 81.0566 9.89642C80.8574 9.65033 80.5391 9.52728 80.1016 9.52728C79.5195 9.52728 79.0938 9.69915 78.8242 10.0429C78.5547 10.3867 78.4199 10.9628 78.4199 11.7714V14.9999H77.043V8.51947H78.1211L78.3145 9.36908H78.3848C78.5801 9.06048 78.8574 8.8222 79.2168 8.65423C79.5762 8.48626 79.9746 8.40228 80.4121 8.40228C81.9668 8.40228 82.7441 9.19329 82.7441 10.7753V14.9999ZM86.8457 15.1171C86.0371 15.1171 85.4062 14.8242 84.9531 14.2382C84.5 13.6523 84.2734 12.83 84.2734 11.7714C84.2734 10.7089 84.502 9.88275 84.959 9.2929C85.4199 8.69915 86.0566 8.40228 86.8691 8.40228C87.7207 8.40228 88.3691 8.71673 88.8145 9.34564H88.8848C88.8184 8.88079 88.7852 8.51361 88.7852 8.24408V5.88275H90.168V14.9999H89.0898L88.8496 14.1503H88.7852C88.3438 14.7949 87.6973 15.1171 86.8457 15.1171ZM87.2148 14.0038C87.7812 14.0038 88.1934 13.8456 88.4512 13.5292C88.709 13.2089 88.8418 12.6913 88.8496 11.9765V11.7831C88.8496 10.9667 88.7168 10.3867 88.4512 10.0429C88.1855 9.69915 87.7695 9.52728 87.2031 9.52728C86.7188 9.52728 86.3457 9.72454 86.084 10.1191C85.8223 10.5097 85.6914 11.0683 85.6914 11.7949C85.6914 12.5136 85.8184 13.0624 86.0723 13.4413C86.3262 13.8163 86.707 14.0038 87.2148 14.0038ZM96.4902 13.1542C96.4902 13.787 96.2598 14.2734 95.7988 14.6132C95.3379 14.9492 94.6777 15.1171 93.8184 15.1171C92.9551 15.1171 92.2617 14.9863 91.7383 14.7245V13.5351C92.5 13.8867 93.209 14.0624 93.8652 14.0624C94.7129 14.0624 95.1367 13.8066 95.1367 13.2949C95.1367 13.1308 95.0898 12.9941 94.9961 12.8847C94.9023 12.7753 94.748 12.662 94.5332 12.5449C94.3184 12.4277 94.0195 12.2949 93.6367 12.1464C92.8906 11.8574 92.3848 11.5683 92.1191 11.2792C91.8574 10.9902 91.7266 10.6152 91.7266 10.1542C91.7266 9.59954 91.9492 9.16986 92.3945 8.86517C92.8438 8.55658 93.4531 8.40228 94.2227 8.40228C94.9844 8.40228 95.7051 8.55658 96.3848 8.86517L95.9395 9.90228C95.2402 9.61322 94.6523 9.46869 94.1758 9.46869C93.4492 9.46869 93.0859 9.67572 93.0859 10.0898C93.0859 10.2929 93.1797 10.4648 93.3672 10.6054C93.5586 10.746 93.9727 10.9394 94.6094 11.1855C95.1445 11.3925 95.5332 11.582 95.7754 11.7538C96.0176 11.9257 96.1973 12.1249 96.3145 12.3515C96.4316 12.5742 96.4902 12.8417 96.4902 13.1542Z" fill="#83868C"/>
</svg>
