<svg width="110" height="14" viewBox="0 0 110 14" fill="none" xmlns="http://www.w3.org/2000/svg">
<path d="M48.1727 3.85458H44.4834V5.82429H47.8445V8.41931H44.4834V13.0466H41.4194V1.25956H48.1727V3.85458Z" fill="#EDEEEE"/>
<path d="M54.8257 8.66944L53.45 4.74564L52.0743 8.66944H54.8257ZM55.6386 10.9987H51.2614L50.5579 13.0466H47.2907L51.7773 1.25956H55.1227L59.6092 13.0466H56.342L55.6386 10.9987Z" fill="#EDEEEE"/>
<path d="M67.9014 5.19899C67.1927 4.33398 66.3173 3.90148 65.2751 3.90148C64.8165 3.90148 64.3893 3.98485 63.9932 4.1516C63.6076 4.31835 63.2741 4.54763 62.9927 4.83944C62.7113 5.12082 62.4873 5.45953 62.3205 5.85556C62.1642 6.25159 62.086 6.67888 62.086 7.13744C62.086 7.60642 62.1642 8.03892 62.3205 8.43495C62.4873 8.83097 62.7113 9.17489 62.9927 9.4667C63.2845 9.75851 63.6233 9.98779 64.0089 10.1545C64.3945 10.3213 64.8113 10.4047 65.2595 10.4047C66.2391 10.4047 67.1198 9.98779 67.9014 9.15405V12.7808L67.5887 12.8903C67.1198 13.057 66.682 13.1769 66.2756 13.2498C65.8691 13.3332 65.4679 13.3749 65.0719 13.3749C64.259 13.3749 63.4773 13.2237 62.727 12.9215C61.987 12.6089 61.3305 12.1764 60.7573 11.624C60.1945 11.0612 59.7411 10.3994 59.3972 9.63866C59.0533 8.86745 58.8813 8.0285 58.8813 7.1218C58.8813 6.21511 59.0481 5.38658 59.3816 4.63621C59.7255 3.87542 60.1789 3.22406 60.7416 2.68213C61.3148 2.12978 61.9766 1.70249 62.727 1.40025C63.4773 1.0876 64.2642 0.931274 65.0875 0.931274C65.5565 0.931274 66.015 0.983383 66.4632 1.0876C66.9217 1.1814 67.4011 1.33251 67.9014 1.54095V5.19899Z" fill="#EDEEEE"/>
<path d="M74.3107 3.85458V13.0466H71.2467V3.85458H68.7298V1.25956H76.8275V3.85458H74.3107Z" fill="#EDEEEE"/>
<path d="M79.6624 7.15307C79.6624 7.62205 79.751 8.05455 79.9282 8.45058C80.1053 8.84661 80.345 9.19053 80.6472 9.48233C80.9495 9.77414 81.2986 10.0034 81.6946 10.1702C82.1011 10.3265 82.5284 10.4047 82.9765 10.4047C83.4247 10.4047 83.8467 10.3265 84.2428 10.1702C84.6492 10.0034 85.0035 9.77414 85.3058 9.48233C85.6184 9.19053 85.8633 8.84661 86.0405 8.45058C86.2177 8.05455 86.3063 7.62205 86.3063 7.15307C86.3063 6.68409 86.2177 6.25159 86.0405 5.85556C85.8633 5.45953 85.6184 5.11561 85.3058 4.8238C85.0035 4.532 84.6492 4.30793 84.2428 4.1516C83.8467 3.98485 83.4247 3.90148 82.9765 3.90148C82.5284 3.90148 82.1011 3.98485 81.6946 4.1516C81.2986 4.30793 80.9495 4.532 80.6472 4.8238C80.345 5.11561 80.1053 5.45953 79.9282 5.85556C79.751 6.25159 79.6624 6.68409 79.6624 7.15307ZM76.4577 7.15307C76.4577 6.27764 76.6192 5.46474 76.9423 4.71438C77.2654 3.95359 77.7135 3.2918 78.2867 2.72903C78.8599 2.16625 79.5425 1.72854 80.3346 1.41589C81.1371 1.09281 82.0177 0.931274 82.9765 0.931274C83.9249 0.931274 84.8003 1.09281 85.6028 1.41589C86.4053 1.72854 87.0931 2.16625 87.6663 2.72903C88.2499 3.2918 88.7033 3.95359 89.0264 4.71438C89.3494 5.46474 89.511 6.27764 89.511 7.15307C89.511 8.0285 89.3494 8.84661 89.0264 9.6074C88.7033 10.3578 88.2499 11.0143 87.6663 11.5771C87.0931 12.1399 86.4053 12.5828 85.6028 12.9059C84.8003 13.2185 83.9249 13.3749 82.9765 13.3749C82.0177 13.3749 81.1371 13.2185 80.3346 12.9059C79.5425 12.5828 78.8599 12.1399 78.2867 11.5771C77.7135 11.0143 77.2654 10.3578 76.9423 9.6074C76.6192 8.84661 76.4577 8.0285 76.4577 7.15307Z" fill="#EDEEEE"/>
<path d="M93.4161 6.52776H93.9945C94.5989 6.52776 95.0627 6.4027 95.3858 6.15258C95.7089 5.90246 95.8704 5.54291 95.8704 5.07393C95.8704 4.60495 95.7089 4.2454 95.3858 3.99527C95.0627 3.74515 94.5989 3.62009 93.9945 3.62009H93.4161V6.52776ZM100.154 13.0466H96.3394L93.4161 8.51311V13.0466H90.3521V1.25956H95.12C95.7766 1.25956 96.3498 1.35857 96.8396 1.55658C97.3294 1.74417 97.7307 2.00472 98.0433 2.33821C98.3664 2.67171 98.6061 3.05732 98.7624 3.49503C98.9292 3.93274 99.0126 4.40172 99.0126 4.90197C99.0126 5.79824 98.7937 6.52776 98.356 7.09054C97.9287 7.64289 97.293 8.01808 96.4488 8.21609L100.154 13.0466Z" fill="#EDEEEE"/>
<path d="M102.621 7.38756L98.3224 1.25956H101.98L104.169 4.47989L106.342 1.25956H110L105.685 7.38756V13.0466H102.621V7.38756Z" fill="#EDEEEE"/>
<path d="M7.00343 4.35479C6.66993 4.08382 6.33643 3.88581 6.00294 3.76075C5.66944 3.62526 5.34637 3.55752 5.03371 3.55752C4.63769 3.55752 4.31461 3.65132 4.06449 3.83891C3.81437 4.0265 3.68931 4.27141 3.68931 4.57364C3.68931 4.78208 3.75184 4.95404 3.8769 5.08952C4.00196 5.225 4.1635 5.34485 4.36151 5.44907C4.56995 5.54287 4.79922 5.62624 5.04935 5.69919C5.30989 5.77215 5.56522 5.85031 5.81535 5.93368C6.81584 6.26718 7.54536 6.71532 8.00392 7.27809C8.4729 7.83045 8.70739 8.55476 8.70739 9.45103C8.70739 10.0555 8.60317 10.6026 8.39473 11.0925C8.19672 11.5823 7.8997 12.0044 7.50367 12.3587C7.11807 12.7026 6.63867 12.9684 6.06547 13.156C5.50269 13.354 4.86175 13.453 4.14265 13.453C2.65234 13.453 1.27146 13.0101 0 12.1242L1.31314 9.65425C1.7717 10.0607 2.22505 10.3629 2.67318 10.5609C3.12132 10.759 3.56424 10.858 4.00196 10.858C4.5022 10.858 4.87218 10.7433 5.11188 10.5141C5.362 10.2848 5.48706 10.0242 5.48706 9.73242C5.48706 9.55525 5.4558 9.40413 5.39326 9.27907C5.33073 9.14359 5.22652 9.02374 5.08061 8.91952C4.93471 8.80488 4.7419 8.70066 4.5022 8.60687C4.27292 8.51307 3.99154 8.40885 3.65804 8.29421C3.26201 8.16915 2.8712 8.03367 2.48559 7.88777C2.11041 7.73144 1.7717 7.52821 1.46947 7.27809C1.17766 7.02797 0.937959 6.71532 0.750367 6.34013C0.573197 5.95453 0.484612 5.46992 0.484612 4.8863C0.484612 4.30268 0.578408 3.77638 0.766 3.3074C0.964014 2.828 1.23498 2.42155 1.5789 2.08805C1.93324 1.74413 2.36053 1.47838 2.86078 1.29079C3.37144 1.1032 3.93943 1.0094 4.56473 1.0094C5.14835 1.0094 5.75803 1.09277 6.39375 1.25952C7.02948 1.41585 7.63916 1.65034 8.22277 1.96299L7.00343 4.35479Z" fill="#EDEEEE"/>
<path d="M15.7391 8.74756L14.3635 4.82377L12.9878 8.74756H15.7391ZM16.552 11.0768H12.1749L11.4714 13.1247H8.20421L12.6908 1.33769H16.0362L20.5227 13.1247H17.2555L16.552 11.0768Z" fill="#EDEEEE"/>
<path d="M24.4807 3.93271V13.1247H21.4167V3.93271H18.8999V1.33769H26.9976V3.93271H24.4807Z" fill="#EDEEEE"/>
<path d="M30.7267 1.33769V13.1247H27.6627V1.33769H30.7267Z" fill="#EDEEEE"/>
<path d="M38.5667 4.35479C38.2332 4.08382 37.8997 3.88581 37.5662 3.76075C37.2327 3.62526 36.9097 3.55752 36.597 3.55752C36.201 3.55752 35.8779 3.65132 35.6278 3.83891C35.3777 4.0265 35.2526 4.27141 35.2526 4.57364C35.2526 4.78208 35.3151 4.95404 35.4402 5.08952C35.5653 5.225 35.7268 5.34485 35.9248 5.44907C36.1332 5.54287 36.3625 5.62624 36.6126 5.69919C36.8732 5.77215 37.1285 5.85031 37.3786 5.93368C38.3791 6.26718 39.1087 6.71532 39.5672 7.27809C40.0362 7.83045 40.2707 8.55476 40.2707 9.45103C40.2707 10.0555 40.1665 10.6026 39.958 11.0925C39.76 11.5823 39.463 12.0044 39.067 12.3587C38.6814 12.7026 38.202 12.9684 37.6288 13.156C37.066 13.354 36.4251 13.453 35.706 13.453C34.2156 13.453 32.8348 13.0101 31.5633 12.1242L32.8764 9.65425C33.335 10.0607 33.7883 10.3629 34.2365 10.5609C34.6846 10.759 35.1275 10.858 35.5653 10.858C36.0655 10.858 36.4355 10.7433 36.6752 10.5141C36.9253 10.2848 37.0504 10.0242 37.0504 9.73242C37.0504 9.55525 37.0191 9.40413 36.9566 9.27907C36.894 9.14359 36.7898 9.02374 36.6439 8.91952C36.498 8.80488 36.3052 8.70066 36.0655 8.60687C35.8362 8.51307 35.5548 8.40885 35.2213 8.29421C34.8253 8.16915 34.4345 8.03367 34.0489 7.88777C33.6737 7.73144 33.335 7.52821 33.0328 7.27809C32.741 7.02797 32.5013 6.71532 32.3137 6.34013C32.1365 5.95453 32.0479 5.46992 32.0479 4.8863C32.0479 4.30268 32.1417 3.77638 32.3293 3.3074C32.5273 2.828 32.7983 2.42155 33.1422 2.08805C33.4965 1.74413 33.9238 1.47838 34.4241 1.29079C34.9347 1.1032 35.5027 1.0094 36.128 1.0094C36.7117 1.0094 37.3213 1.09277 37.9571 1.25952C38.5928 1.41585 39.2025 1.65034 39.7861 1.96299L38.5667 4.35479Z" fill="#EDEEEE"/>
</svg>
