<svg width="267" height="30" viewBox="0 0 267 30" fill="none" xmlns="http://www.w3.org/2000/svg">
<path d="M14.4306 0.298957C14.0878 0.470382 13.6514 0.735312 13.4488 0.891152L13.106 1.15608L17.7344 5.80015L22.3785 10.4286L22.3006 8.18452L22.2227 5.9404L21.5837 5.41054C19.6513 3.83655 15.4592 0.283373 15.3657 0.143115C15.2254 -0.0750618 15.1475 -0.0594778 14.4306 0.298957Z" fill="white"/>
<path d="M152.459 5.44173C150.683 5.81575 149.093 7.00014 148.376 8.48063C147.893 9.4936 147.769 11.2858 148.127 12.4857C148.672 14.3714 150.215 15.4156 153.955 16.4129C156.262 17.0363 157.072 17.3947 157.54 17.9869C158.568 19.296 157.727 21.0414 155.857 21.4934C154.236 21.883 152.163 21.3843 150.387 20.1687C149.109 19.296 148.439 19.2337 147.737 19.9194C147.036 20.6207 147.098 21.3687 147.924 22.1479C149.701 23.8466 153.332 24.8751 156.028 24.4699C158.257 24.1271 159.877 23.0206 160.672 21.3531C161.031 20.5895 161.077 20.2778 161.077 18.922C161.077 17.4882 161.046 17.3012 160.625 16.5376C159.815 15.0727 158.35 14.2312 155.233 13.3896C152.117 12.5637 151.104 11.8468 151.104 10.5066C151.104 8.13778 154.735 7.49883 157.649 9.35334C158.631 9.97671 159.457 10.0235 160.002 9.46243C160.532 8.94816 160.625 8.13778 160.251 7.53C159.909 7.00014 158.272 6.08068 156.948 5.69108C155.919 5.37939 153.394 5.23914 152.459 5.44173Z" fill="white"/>
<path d="M172.407 5.50408C169.539 6.20536 166.999 8.54298 165.986 11.3949C164.287 16.2104 166.298 21.618 170.521 23.644C172.111 24.4232 173.513 24.6881 175.321 24.5634C177.129 24.4388 178.516 23.9868 179.918 23.0362C181.336 22.1012 181.57 21.7895 181.57 20.9012C181.57 19.4674 180.214 18.9999 178.905 19.9817C177.207 21.2596 176.287 21.5557 174.417 21.4622C172.905 21.3843 172.048 21.057 171.004 20.1531C169.461 18.8441 168.713 16.9116 168.822 14.4961C168.869 13.1091 168.932 12.8598 169.461 11.7845C170.568 9.55595 172.407 8.35597 174.713 8.35597C176.131 8.35597 177.082 8.66765 178.469 9.58712C179.872 10.5222 180.822 10.4754 181.336 9.41569C181.633 8.77674 181.633 8.51181 181.352 7.95078C180.9 7.09366 178.89 5.92485 177.175 5.51966C175.991 5.23915 173.544 5.23915 172.407 5.50408Z" fill="white"/>
<path d="M214.297 5.37941C210.682 6.08069 207.814 8.87025 206.879 12.6104C206.505 14.1221 206.63 16.8493 207.175 18.3454C208.516 22.1791 211.975 24.6102 215.996 24.6102C218.661 24.5946 220.796 23.7375 222.65 21.883C223.866 20.6674 224.411 19.7947 225.019 18.0649C225.378 17.0519 225.424 16.6467 225.424 14.9481C225.424 12.7351 225.222 11.8001 224.302 10.0546C223.663 8.83908 222.183 7.2495 221.076 6.61055C219.58 5.72226 218.427 5.41058 216.479 5.36382C215.497 5.33265 214.515 5.34824 214.297 5.37941ZM217.975 8.65207C221.482 9.83646 223.18 14.387 221.482 18.0181C220.858 19.3272 219.923 20.2934 218.676 20.9168C217.305 21.5869 215.466 21.696 214.095 21.1817C210.464 19.8103 208.89 15.2597 210.775 11.5351C212.115 8.917 215.154 7.70144 217.975 8.65207Z" fill="white"/>
<path d="M237.517 5.3794C234.774 5.90927 232.188 7.8417 230.988 10.2572C230.099 12.0182 229.959 12.6884 229.959 14.948C229.959 16.7558 230.006 17.2233 230.333 18.2051C230.816 19.6544 231.923 21.3687 232.998 22.3037C235.865 24.8128 240.26 25.3426 243.626 23.5661C245.792 22.4284 247.351 20.6051 248.161 18.2363C249.392 14.6675 248.535 10.5533 246.042 8.0287C244.234 6.18978 242.426 5.42616 239.699 5.36382C238.717 5.33265 237.735 5.34824 237.517 5.3794ZM240.291 8.40272C243.595 9.02609 245.808 12.3767 245.294 16.0078C244.982 18.1895 243.72 20.0129 241.896 20.9168C240.946 21.3843 240.759 21.4155 239.309 21.4155C237.954 21.4155 237.642 21.3687 236.894 21.0103C233.528 19.4363 232.203 15.0883 233.995 11.5351C234.759 10.0391 236.13 8.96375 237.876 8.48064C238.873 8.21571 239.278 8.20013 240.291 8.40272Z" fill="white"/>
<path d="M53.6092 5.89368L53.1572 6.34562V14.8701C53.1572 20.4181 53.2196 23.4881 53.3131 23.6907C53.5157 24.0648 54.2637 24.4544 54.8091 24.4544C55.0585 24.4544 55.4013 24.2673 55.7442 23.9245L56.274 23.3946V19.8726V16.3506H60.5597H64.8453V19.8726V23.3946L65.3752 23.9245C66.2167 24.766 67.3076 24.579 67.8375 23.5193C68.0868 23.0206 68.118 22.2726 68.118 14.9792C68.118 6.39237 68.1024 6.25212 67.3232 5.69109C66.6998 5.27032 65.9829 5.36382 65.3752 5.9716L64.8453 6.50146V9.94555V13.3896H60.5597H56.274V10.0391C56.274 6.42354 56.1961 6.04952 55.4793 5.65992C54.778 5.30148 54.1234 5.3794 53.6092 5.89368Z" fill="white"/>
<path d="M187.306 5.69109C187.072 5.81576 186.807 6.04952 186.713 6.22095C186.62 6.40796 186.558 9.49361 186.558 14.9792C186.558 22.7557 186.589 23.4726 186.838 23.7687C187.165 24.1894 187.68 24.4544 188.116 24.4544C188.568 24.4544 189.3 24.0492 189.456 23.7219C189.534 23.5661 189.628 21.8674 189.674 19.935L189.752 16.4285L194.007 16.3818L198.246 16.3506V19.6544C198.246 22.5063 198.292 23.0518 198.526 23.5193C199.025 24.5323 200.1 24.7505 200.926 24.0024L201.44 23.5505L201.487 15.026L201.534 6.51704L200.989 5.9716C200.381 5.36382 199.664 5.27032 199.04 5.69109C198.339 6.18978 198.246 6.75081 198.246 10.1949V13.3896H193.96H189.674V9.94555C189.674 7.88845 189.612 6.39237 189.519 6.20536C189.316 5.84693 188.568 5.44174 188.085 5.44174C187.882 5.45732 187.539 5.55083 187.306 5.69109Z" fill="white"/>
<path d="M254.676 5.65991C253.881 6.09626 253.896 6.03393 253.881 14.8234C253.881 20.87 253.928 23.1453 254.068 23.4414C254.442 24.2673 254.676 24.2985 260.317 24.2985C266.675 24.2985 266.535 24.3297 266.535 22.7713C266.535 22.2726 266.426 21.9765 266.177 21.7115L265.834 21.3375L261.455 21.3064L257.076 21.2596L256.998 13.7325L256.92 6.18977L256.483 5.81575C256 5.39498 255.268 5.33264 254.676 5.65991Z" fill="white"/>
<path d="M34.1294 6.04949C33.5372 6.65727 33.506 7.54556 34.067 8.15335L34.4411 8.55853H36.9501H39.4436V15.7272C39.4436 23.6128 39.4591 23.7375 40.363 24.205C41.0955 24.5946 41.5942 24.5167 42.1864 23.9245L42.7162 23.3946V15.9766V8.55853H45.2564C48.046 8.55853 48.1083 8.54295 48.4823 7.56115C48.607 7.23388 48.607 6.96895 48.4823 6.59493C48.1395 5.56638 48.3109 5.59755 41.1111 5.59755H34.5813L34.1294 6.04949Z" fill="white"/>
<path d="M74.4925 6.04951L74.0405 6.50145V14.948V23.3946L74.4925 23.8466L74.9444 24.2985H80.8196H86.6948L87.1468 23.8466C87.474 23.5037 87.5987 23.2388 87.5987 22.818C87.5987 22.3972 87.474 22.1323 87.1468 21.7895L86.6948 21.3375H81.9261H77.1573V18.8441V16.3506H81.3027H85.4481L85.9 15.8987C86.2273 15.5558 86.352 15.2909 86.352 14.8701C86.352 14.4493 86.2273 14.1844 85.9 13.8416L85.4481 13.3896H81.3027H77.1573V10.9741V8.55855H81.817H86.4766L86.9598 8.15336C87.3649 7.81051 87.4429 7.63909 87.4429 7.06248C87.4429 6.53262 87.3494 6.26768 87.0533 5.98717L86.6792 5.59757H80.8196H74.9444L74.4925 6.04951Z" fill="white"/>
<path d="M100.58 5.78458C100.408 5.8625 100.143 6.1586 99.9875 6.43911C99.7693 6.87547 99.7381 7.73259 99.7849 15.1506L99.8316 23.3946L100.346 23.8466L100.845 24.2985H104.943C109.494 24.2985 110.616 24.1738 112.003 23.5349C113.904 22.6466 114.777 21.3064 114.792 19.2337C114.792 17.1454 114.107 15.9922 112.268 14.9948L111.457 14.5428L112.252 13.8571C113.421 12.8598 113.826 11.8624 113.748 10.226C113.717 9.38451 113.592 8.74556 113.39 8.34037C112.782 7.09364 111.411 6.12743 109.759 5.76899C108.699 5.55082 101.063 5.55082 100.58 5.78458ZM109.26 8.9014C110.242 9.41568 110.585 9.96112 110.569 10.9897C110.569 11.9559 110.242 12.5013 109.4 13C108.933 13.2805 108.528 13.3117 105.878 13.3585L102.871 13.4208V10.9897V8.55855H105.722C108.372 8.55855 108.621 8.58972 109.26 8.9014ZM110.039 16.6155C111.115 17.1142 111.489 17.5973 111.566 18.6571C111.613 19.3895 111.566 19.6389 111.255 20.0752C110.538 21.1349 110.07 21.2596 106.268 21.3064L102.871 21.3531V18.8752C102.871 17.5194 102.917 16.3506 102.995 16.2883C103.058 16.2103 104.507 16.1948 106.221 16.2259C108.964 16.2883 109.431 16.335 110.039 16.6155Z" fill="white"/>
<path d="M120.496 5.81574C119.702 6.2521 119.717 6.18976 119.702 14.9169C119.702 23.8621 119.686 23.7531 120.621 24.1427C121.369 24.4543 128.242 24.2673 129.364 23.9245C133.712 22.5375 136.299 18.7973 136.003 14.3091C135.956 13.5766 135.769 12.5325 135.613 11.9715C134.647 8.91698 131.982 6.50144 128.818 5.83133C127.353 5.51964 121.042 5.50406 120.496 5.81574ZM128.756 9.01048C130.595 9.71177 131.779 10.9741 132.34 12.813C132.761 14.1844 132.699 16.2883 132.2 17.5973C131.733 18.8129 130.657 19.9817 129.473 20.5583C128.179 21.1817 127.12 21.3531 124.829 21.3063L122.896 21.2596L122.85 15.1039C122.834 11.7221 122.85 8.85464 122.896 8.72997C122.959 8.57413 123.457 8.54296 125.437 8.58971C127.494 8.65205 128.024 8.71439 128.756 9.01048Z" fill="white"/>
<path d="M14.8205 7.3274C14.6023 7.40532 13.6205 7.49883 12.6075 7.56117L10.7998 7.65467L10.7375 8.09103C10.6751 8.49621 10.9712 8.83906 13.6049 11.4728C15.2257 13.0779 16.7685 14.7299 17.0178 15.1506C19.4801 18.9531 17.5165 24.1582 13.1062 25.5141C9.42839 26.6361 5.26743 24.205 4.39472 20.3869C4.30121 19.9973 4.22329 17.4103 4.22329 14.4026V9.10399L2.10385 9.15075L0 9.1975L0.0467523 15.0727C0.109089 21.5869 0.140257 21.7739 1.18439 23.8621C2.6493 26.7764 5.26743 28.9114 8.35308 29.7062C10.005 30.127 12.6855 30.0958 14.1971 29.6127C19.075 28.101 22.3009 23.8777 22.3009 18.9999C22.3009 16.9896 21.9736 15.6182 21.1165 13.8571C20.4308 12.4702 20.2126 12.2052 17.7971 9.78969C15.4283 7.40532 15.1789 7.20273 14.8205 7.3274Z" fill="white"/>
</svg>
